# xmcd
#
# Track frame offsets:
#	150
#	13800
#	27225
#	42150
#	61501
#	77926
#	93001
#	108976
#	125551
#	145051
#	162301
#	183751
#	201601
#	219227
#	235127
#
# Disc length: 3333 seconds
#
# Revision: 1
# Processed by: cddbd v1.5.2PL0 Copyright (c) Steve Scherf et al.
# Submitted via: audiograbber 1.83.01
#
DISCID=c20d030f
DTITLE=Brooks And Dunn - Brooks And Dunn And Then Some [CD1]
DYEAR=2009
DGENRE=Country
TTITLE0=Honky Tonk Stomp (featuring Bil
TTITLE1=Brand New Man
TTITLE2=Ain't Nothing 'Bout You
TTITLE3=Hillbilly Deluxe
TTITLE4=How Long Gone
TTITLE5=She's Not The Cheatin' Kind
TTITLE6=A Man This Lonely
TTITLE7=Rock My World (Little Country G
TTITLE8=Red Dirt Road
TTITLE9=The Long Goodbye
TTITLE10=You're Gonna Miss Me When I'm G
TTITLE11=If You See Him - If You See Her
TTITLE12=She Used To Be Mine
TTITLE13=That Ain't No Way To Go
TTITLE14=Boot Scootin' Boogie
EXTD=
EXTT0=
EXTT1=
EXTT2=
EXTT3=
EXTT4=
EXTT5=
EXTT6=
EXTT7=
EXTT8=
EXTT9=
EXTT10=
EXTT11=
EXTT12=
EXTT13=
EXTT14=
PLAYORDER=
